# xmcd
#
# Track frame offsets:
#	150
#	9205
#	16985
#	27240
#	33202
#	45400
#	53275
#	68472
#	80615
#	89412
#	100655
#	108060
#	118752
#	129965
#	141432
#	150157
#	163895
#	171040
#
# Disc length: 2432 seconds
#
# Revision: 3
# Processed by: cddbd v1.5.1PL0 Copyright (c) Steve Scherf et al.
# Submitted via: EasyCDDAExtractor 7.7.1.2
#
DISCID=c6097e12
DTITLE=Jim Reeves - 18 Very Special Love Songs
DYEAR=1996
DGENRE=Country
TTITLE0=I'd Like To Be
TTITLE1=I Know One
TTITLE2=Anna Marie
TTITLE3=Have I Told You ?
TTITLE4=Your Old Love Letters
TTITLE5=Till The End Of The World
TTITLE6=Making Believe
TTITLE7=Four Walls
TTITLE8=According To My Heart
TTITLE9=Just Call Me Lonesome
TTITLE10=Blue Boy
TTITLE11=I Missed Me
TTITLE12=Am I Losing You
TTITLE13=I Love You More
TTITLE14=If You Were Only Mine 
TTITLE15=How's The World Treating You
TTITLE16=I'm Beginning To Forget You
TTITLE17=If Heartaches Are The Fashion
EXTD=
EXTT0=
EXTT1=
EXTT2=
EXTT3=
EXTT4=
EXTT5=
EXTT6=
EXTT7=
EXTT8=
EXTT9=
EXTT10=
EXTT11=
EXTT12=
EXTT13=
EXTT14=
EXTT15=
EXTT16=
EXTT17=
PLAYORDER=
